<svg width="26" height="14" viewBox="0 0 26 14" fill="none" xmlns="http://www.w3.org/2000/svg">
<path d="M25 3C24.4698 2.99939 23.9614 2.78848 23.5865 2.41354C23.2115 2.0386 23.0006 1.53025 23 1C23 0.734784 22.8946 0.48043 22.7071 0.292893C22.5196 0.105357 22.2652 0 22 0H4C3.73478 0 3.48043 0.105357 3.29289 0.292893C3.10536 0.48043 3 0.734784 3 1C2.99939 1.53025 2.78848 2.0386 2.41354 2.41354C2.0386 2.78848 1.53025 2.99939 1 3C0.734784 3 0.48043 3.10536 0.292893 3.29289C0.105357 3.48043 0 3.73478 0 4V10C0 10.2652 0.105357 10.5196 0.292893 10.7071C0.48043 10.8946 0.734784 11 1 11C1.53025 11.0006 2.0386 11.2115 2.41354 11.5865C2.78848 11.9614 2.99939 12.4698 3 13C3 13.2652 3.10536 13.5196 3.29289 13.7071C3.48043 13.8946 3.73478 14 4 14H22C22.2652 14 22.5196 13.8946 22.7071 13.7071C22.8946 13.5196 23 13.2652 23 13C23.0006 12.4698 23.2115 11.9614 23.5865 11.5865C23.9614 11.2115 24.4698 11.0006 25 11C25.2652 11 25.5196 10.8946 25.7071 10.7071C25.8946 10.5196 26 10.2652 26 10V4C26 3.73478 25.8946 3.48043 25.7071 3.29289C25.5196 3.10536 25.2652 3 25 3Z" fill="#BBBBBB"/>
</svg>
