<svg width="6" height="12" viewBox="0 0 6 12" fill="none" xmlns="http://www.w3.org/2000/svg">
<path d="M5.75417 7.4C5.56583 6.84921 5.25021 6.35062 4.83295 5.94474C4.41569 5.53886 3.90856 5.23714 3.35277 5.0641C3.09949 4.99615 2.86381 4.87445 2.66176 4.70728C2.45972 4.5401 2.29604 4.33138 2.18187 4.0953C2.16337 4.024 2.11457 3.8353 2.38507 3.5142C2.86507 2.9449 4.02957 3.8014 4.03737 3.8072C4.24719 3.96125 4.5088 4.02743 4.76663 3.99166C5.02446 3.95589 5.25818 3.821 5.41813 3.61564C5.57808 3.41029 5.65166 3.15066 5.62323 2.89192C5.5948 2.63318 5.4666 2.39572 5.26587 2.23C4.88162 1.9374 4.4548 1.70541 4.00027 1.5421V1C4.00027 0.734784 3.89492 0.48043 3.70738 0.292893C3.51984 0.105357 3.26549 0 3.00027 0C2.73505 0 2.4807 0.105357 2.29316 0.292893C2.10563 0.48043 2.00027 0.734784 2.00027 1V1.4354C1.55158 1.58488 1.15464 1.85887 0.855771 2.2254C0.567393 2.54097 0.360991 2.92258 0.254727 3.33665C0.148463 3.75072 0.145594 4.18456 0.246372 4.6C0.434678 5.15081 0.750289 5.64942 1.16755 6.0553C1.58482 6.46119 2.09196 6.76289 2.64777 6.9359C2.90105 7.00385 3.13673 7.12555 3.33878 7.29272C3.54082 7.4599 3.7045 7.66862 3.81867 7.9047C3.83717 7.976 3.88597 8.1647 3.61547 8.4858C3.13547 9.0551 1.98267 8.2084 1.95927 8.1899C1.74928 8.03193 1.48555 7.96296 1.2251 7.99791C0.964663 8.03286 0.728444 8.16892 0.56753 8.37667C0.406616 8.58441 0.33394 8.84715 0.365218 9.10806C0.396495 9.36896 0.529213 9.60707 0.734671 9.7709C1.11997 10.0593 1.54666 10.2878 2.00027 10.4486V11C2.00027 11.2652 2.10563 11.5196 2.29316 11.7071C2.4807 11.8946 2.73505 12 3.00027 12C3.26549 12 3.51984 11.8946 3.70738 11.7071C3.89492 11.5196 4.00027 11.2652 4.00027 11V10.551C4.44806 10.4067 4.8452 10.1372 5.14477 9.7744C5.43312 9.45885 5.6395 9.07728 5.74576 8.66325C5.85203 8.24921 5.85491 7.81541 5.75417 7.4Z" fill="#D8B812"/>
</svg>
